<?xml version='1.0' encoding='utf-8'?>
<svg xmlns="http://www.w3.org/2000/svg" width="475px" height="93px" viewBox="0 0 475 93" version="1.1"><title>00_Atom/00_BB/grey</title><g id="00_Atom/00_BB/grey" stroke="none" stroke-width="1" fill="none" fill-rule="evenodd"><path d="M36.45,79 C40.53,79 43.95,78.46 46.71,77.38 C49.47,76.3 51.675,74.905 53.325,73.195 C54.975,71.485 56.145,69.565 56.835,67.435 C57.525,65.305 57.87,63.16 57.87,61 C57.87,58.24 57.435,55.87 56.565,53.89 C55.695,51.91 54.6,50.245 53.28,48.895 C51.96,47.545 50.505,46.48 48.915,45.7 C47.325,44.92 45.81,44.41 44.37,44.17 C46.29,43.87 47.91,43.27 49.23,42.37 C50.55,41.47 51.63,40.39 52.47,39.13 C53.31,37.87 53.925,36.535 54.315,35.125 C54.705,33.715 54.9,32.35 54.9,31.03 C54.9,28.99 54.525,27.025 53.775,25.135 C53.025,23.245 51.855,21.58 50.265,20.14 C48.675,18.7 46.68,17.56 44.28,16.72 C41.88,15.88 39,15.46 35.64,15.46 L35.64,15.46 L7.2,15.46 L7.2,79 L36.45,79 Z M30.96,41.02 L18.99,41.02 L18.99,25.18 L31.32,25.18 C32.52,25.18 33.78,25.285 35.1,25.495 C36.42,25.705 37.65,26.095 38.79,26.665 C39.93,27.235 40.86,28.03 41.58,29.05 C42.3,30.07 42.66,31.39 42.66,33.01 C42.66,34.57 42.3,35.875 41.58,36.925 C40.86,37.975 39.93,38.8 38.79,39.4 C37.65,40 36.39,40.42 35.01,40.66 C33.63,40.9 32.28,41.02 30.96,41.02 L30.96,41.02 Z M34.65,68.74 L18.99,68.74 L18.99,49.93 L32.22,49.93 C33.48,49.93 34.89,50.035 36.45,50.245 C38.01,50.455 39.48,50.905 40.86,51.595 C42.24,52.285 43.395,53.29 44.325,54.61 C45.255,55.93 45.72,57.7 45.72,59.92 C45.72,61.06 45.525,62.17 45.135,63.25 C44.745,64.33 44.115,65.275 43.245,66.085 C42.375,66.895 41.235,67.54 39.825,68.02 C38.415,68.5 36.69,68.74 34.65,68.74 L34.65,68.74 Z M80.82,79 L80.82,15.46 L69.12,15.46 L69.12,79 L80.82,79 Z M107.19,79 L107.189297,78.9050781 C107.186016,78.6196094 107.17125,77.88625 107.145,76.705 C107.115,75.355 107.085,73.63 107.055,71.53 C107.025,69.43 106.995,67.06 106.965,64.42 C106.935,61.78 106.89,59.08 106.83,56.32 C106.71,49.9 106.59,42.61 106.47,34.45 L106.47,34.45 L134.28,79 L144.72,79 L144.72,15.46 L133.02,15.46 C133.02,15.64 133.05,16.42 133.11,17.8 C133.17,19.18 133.23,20.935 133.29,23.065 C133.35,25.195 133.425,27.595 133.515,30.265 C133.605,32.935 133.68,35.65 133.74,38.41 C133.98,44.89 134.22,52.18 134.46,60.28 L134.46,60.28 L106.29,15.46 L95.58,15.46 L95.58,79 L107.19,79 L107.19,79 Z M170.91,79 C170.91,78.82 170.895,78.055 170.865,76.705 C170.835,75.355 170.805,73.63 170.775,71.53 C170.745,69.43 170.715,67.06 170.685,64.42 C170.655,61.78 170.61,59.08 170.55,56.32 C170.43,49.9 170.31,42.61 170.19,34.45 L170.19,34.45 L198,79 L208.44,79 L208.44,15.46 L196.74,15.46 C196.74,15.64 196.77,16.42 196.83,17.8 C196.89,19.18 196.95,20.935 197.01,23.065 C197.07,25.195 197.145,27.595 197.235,30.265 C197.325,32.935 197.4,35.65 197.46,38.41 C197.7,44.89 197.94,52.18 198.18,60.28 L198.18,60.28 L170.01,15.46 L159.3,15.46 L159.3,79 L170.91,79 Z M252.09,79 C256.17,79 259.59,78.46 262.35,77.38 C265.11,76.3 267.315,74.905 268.965,73.195 C270.615,71.485 271.785,69.565 272.475,67.435 C273.165,65.305 273.51,63.16 273.51,61 C273.51,58.24 273.075,55.87 272.205,53.89 C271.335,51.91 270.24,50.245 268.92,48.895 C267.6,47.545 266.145,46.48 264.555,45.7 C262.965,44.92 261.45,44.41 260.01,44.17 C261.93,43.87 263.55,43.27 264.87,42.37 C266.19,41.47 267.27,40.39 268.11,39.13 C268.95,37.87 269.565,36.535 269.955,35.125 C270.345,33.715 270.54,32.35 270.54,31.03 C270.54,28.99 270.165,27.025 269.415,25.135 C268.665,23.245 267.495,21.58 265.905,20.14 C264.315,18.7 262.32,17.56 259.92,16.72 C257.52,15.88 254.64,15.46 251.28,15.46 L251.28,15.46 L222.84,15.46 L222.84,79 L252.09,79 Z M246.6,41.02 L234.63,41.02 L234.63,25.18 L246.96,25.18 C248.16,25.18 249.42,25.285 250.74,25.495 C252.06,25.705 253.29,26.095 254.43,26.665 C255.57,27.235 256.5,28.03 257.22,29.05 C257.94,30.07 258.3,31.39 258.3,33.01 C258.3,34.57 257.94,35.875 257.22,36.925 C256.5,37.975 255.57,38.8 254.43,39.4 C253.29,40 252.03,40.42 250.65,40.66 C249.27,40.9 247.92,41.02 246.6,41.02 L246.6,41.02 Z M250.29,68.74 L234.63,68.74 L234.63,49.93 L247.86,49.93 C249.12,49.93 250.53,50.035 252.09,50.245 C253.65,50.455 255.12,50.905 256.5,51.595 C257.88,52.285 259.035,53.29 259.965,54.61 C260.895,55.93 261.36,57.7 261.36,59.92 C261.36,61.06 261.165,62.17 260.775,63.25 C260.385,64.33 259.755,65.275 258.885,66.085 C258.015,66.895 256.875,67.54 255.465,68.02 C254.055,68.5 252.33,68.74 250.29,68.74 L250.29,68.74 Z M332.01,79 L332.01,68.29 L296.28,68.29 L296.28,51.28 L326.97,51.28 L326.97,41.02 L296.28,41.02 L296.28,26.08 L329.76,26.08 L329.76,15.46 L284.58,15.46 L284.58,79 L332.01,79 Z M352.89,79 L352.89,55.42 L363.6,55.42 L376.11,79 L389.7,79 L375.57,53.08 C378.09,52.24 380.16,51.145 381.78,49.795 C383.4,48.445 384.675,46.975 385.605,45.385 C386.535,43.795 387.18,42.145 387.54,40.435 C387.9,38.725 388.08,37.12 388.08,35.62 C388.08,32.62 387.57,29.89 386.55,27.43 C385.53,24.97 384.105,22.855 382.275,21.085 C380.445,19.315 378.24,17.935 375.66,16.945 C373.08,15.955 370.23,15.46 367.11,15.46 L367.11,15.46 L341.1,15.46 L341.1,79 L352.89,79 Z M362.07,45.52 L352.89,45.52 L352.89,25.72 L363.69,25.72 C367.53,25.72 370.545,26.5 372.735,28.06 C374.925,29.62 376.02,32.11 376.02,35.53 C376.02,39.25 374.76,41.845 372.24,43.315 C369.72,44.785 366.33,45.52 362.07,45.52 L362.07,45.52 Z M425.88,80.62 C429.48,80.62 432.645,80.05 435.375,78.91 C438.105,77.77 440.76,76 443.34,73.6 L443.34,73.6 L443.34,79 L453.6,79 L453.6,44.26 L426.87,44.26 L426.87,54.7 L442.71,54.7 C442.05,59.68 440.31,63.37 437.49,65.77 C434.67,68.17 431.19,69.37 427.05,69.37 C424.17,69.37 421.725,68.89 419.715,67.93 C417.705,66.97 416.025,65.755 414.675,64.285 C413.325,62.815 412.275,61.195 411.525,59.425 C410.775,57.655 410.22,55.96 409.86,54.34 C409.5,52.72 409.275,51.28 409.185,50.02 C409.095,48.76 409.05,47.92 409.05,47.5 C409.05,43.96 409.47,40.78 410.31,37.96 C411.15,35.14 412.35,32.74 413.91,30.76 C415.47,28.78 417.33,27.25 419.49,26.17 C421.65,25.09 424.08,24.55 426.78,24.55 C429.54,24.55 431.85,25.06 433.71,26.08 C435.57,27.1 437.085,28.3 438.255,29.68 C439.425,31.06 440.325,32.44 440.955,33.82 C441.585,35.2 442.02,36.28 442.26,37.06 L442.26,37.06 L453.6,32.56 C452.64,30.04 451.35,27.64 449.73,25.36 C448.11,23.08 446.175,21.085 443.925,19.375 C441.675,17.665 439.125,16.315 436.275,15.325 C433.425,14.335 430.29,13.84 426.87,13.84 C421.47,13.84 416.835,14.905 412.965,17.035 C409.095,19.165 405.915,21.895 403.425,25.225 C400.935,28.555 399.09,32.23 397.89,36.25 C396.69,40.27 396.09,44.14 396.09,47.86 C396.09,53.26 396.93,58 398.61,62.08 C400.29,66.16 402.51,69.58 405.27,72.34 C408.03,75.1 411.21,77.17 414.81,78.55 C418.41,79.93 422.1,80.62 425.88,80.62 Z" id="BINNBERG" stroke="none" stroke-width="0.3" fill="#FFF3D6" fill-rule="nonzero" /></g></svg>